<svg width="64" height="65" viewBox="0 0 64 65" fill="none" xmlns="http://www.w3.org/2000/svg">
<rect y="0.254997" width="64" height="64" rx="8" fill="#0F172A"/>
<g clip-path="url(#clip0_120_7050)">
<g filter="url(#filter0_i_120_7050)">
<path fill-rule="evenodd" clip-rule="evenodd" d="M32.1387 12.0154C32.39 12.0347 32.8346 12.0991 33.1182 12.1635C33.4017 12.2279 33.7948 12.3503 33.9881 12.434C34.1814 12.5242 34.6453 12.7689 35.0191 12.9815C35.3928 13.194 35.7988 13.4323 35.9212 13.4967C36.0437 13.5675 36.4367 13.7929 36.7911 13.999C37.1456 14.2051 37.6804 14.5142 37.9833 14.6881C38.2861 14.862 38.5761 15.0295 38.6276 15.0617C38.6792 15.1003 38.7952 15.1647 38.8854 15.2098C38.9756 15.2549 39.1174 15.3322 39.2076 15.3901C39.2978 15.4481 39.62 15.6413 39.9293 15.8216C40.245 16.0084 40.5092 16.1565 40.5286 16.1565C40.5479 16.1565 40.6381 16.2081 40.7348 16.2725C40.8379 16.3433 41.0763 16.4785 41.2696 16.588C41.4629 16.6975 41.7271 16.8456 41.8496 16.9165C41.972 16.9873 42.32 17.1934 42.6228 17.3673C42.9257 17.5412 43.4283 17.831 43.7505 18.0178C44.0727 18.1981 44.3755 18.372 44.4271 18.4106C44.4786 18.4428 45.0135 18.752 45.6192 19.0998C46.2249 19.4475 46.7727 19.7631 46.8435 19.8017C46.9144 19.8404 47.3333 20.0851 47.7779 20.3427C48.2225 20.5939 48.854 20.961 49.7755 21.502L49.7433 40.0179L49.6015 40.5331C49.5177 40.8165 49.3244 41.3059 49.1633 41.628C49.0087 41.95 48.738 42.3622 48.5705 42.5554C48.3965 42.7486 48.171 42.9998 48.0679 43.1157C47.9648 43.2252 47.6877 43.4506 47.4557 43.6116C47.2237 43.7661 46.9209 43.9658 46.7791 44.0431C46.6373 44.1204 46.1154 44.4166 45.6192 44.7C45.123 44.9834 44.5431 45.3247 44.3304 45.4599C44.1178 45.5888 43.7956 45.7755 43.6216 45.8721C43.4412 45.9623 43.2543 46.0653 43.2028 46.0975C43.1512 46.1297 42.945 46.2521 42.7517 46.368C42.5584 46.4775 42.2942 46.6321 42.1718 46.7029C42.0493 46.7738 41.8302 46.8961 41.6885 46.9734C41.5467 47.0571 40.2386 47.8107 38.7887 48.6479C37.3324 49.4851 36.0179 50.2515 35.8568 50.3417C35.6957 50.4319 35.0449 50.8054 34.4069 51.1789C33.769 51.546 33.1182 51.926 32.9571 52.0097C32.796 52.0999 32.4996 52.2738 32.2933 52.3897C32.0936 52.5121 31.8681 52.6087 31.7972 52.6087C31.7263 52.6087 31.5136 52.525 31.3268 52.4219C31.1463 52.3253 30.5664 51.9904 30.038 51.6813C29.5161 51.3786 29.0779 51.1274 29.0585 51.1274C29.0392 51.1274 28.8717 51.0308 28.6848 50.9149C28.5044 50.7925 28.1886 50.6122 27.9953 50.5027C27.802 50.3997 27.3896 50.1614 27.0738 49.981C26.7645 49.7943 26.5068 49.6462 26.4939 49.6462C26.4875 49.6462 26.2168 49.4916 25.9011 49.3048C25.5789 49.1116 25.1922 48.8862 25.0311 48.796C24.87 48.7059 24.6381 48.5771 24.5156 48.5062C24.3932 48.4354 23.3751 47.8493 22.2603 47.2053C21.1455 46.5612 20.1854 46.0074 20.1338 45.9752C20.0823 45.943 19.7923 45.7755 19.4894 45.6016C19.1866 45.4213 18.8386 45.2217 18.7162 45.1508C18.5937 45.0864 18.3296 44.9383 18.1362 44.8224C17.9429 44.7129 17.7367 44.5905 17.6852 44.5583C17.6336 44.5261 17.4403 44.4231 17.2663 44.3265C17.0859 44.2363 16.667 43.9787 16.332 43.7533C15.9969 43.5343 15.5716 43.1994 15.3976 43.0191C15.2172 42.8323 14.9465 42.5038 14.7919 42.2849C14.6372 42.0659 14.4181 41.6859 14.2957 41.4348C14.1797 41.1836 14.0251 40.7392 13.9542 40.4365C13.8189 39.8955 13.8189 39.7474 13.8189 21.4698L14.0251 21.3603C14.1411 21.2959 14.2828 21.2186 14.3344 21.18C14.3859 21.1478 14.8628 20.8644 15.3976 20.5617C15.926 20.2526 16.4931 19.9306 16.6542 19.8404C16.8152 19.7567 17.1761 19.5441 17.4596 19.3767C17.7432 19.2157 18.1942 18.9516 18.4584 18.7906C18.7226 18.636 18.9997 18.475 19.0706 18.4364C19.1415 18.3978 19.3735 18.269 19.5861 18.153C19.7987 18.0371 20.1725 17.8181 20.4238 17.67C20.6687 17.5219 21.0617 17.29 21.2937 17.1612C21.5257 17.0324 21.7577 16.8972 21.8092 16.865C21.8608 16.8328 22.4278 16.5043 23.0658 16.1372C23.7037 15.7701 24.4125 15.3579 24.6445 15.2291C24.8765 15.1003 25.1085 14.9651 25.16 14.9329C25.2116 14.8942 25.7915 14.5593 26.4488 14.1794C27.1061 13.8058 27.8278 13.3872 28.0597 13.2519C28.2917 13.1231 28.7557 12.8655 29.0908 12.6916C29.4258 12.5178 29.9027 12.3052 30.154 12.2279C30.4053 12.1507 30.837 12.0734 31.1206 12.054C31.4041 12.0347 31.6425 12.0154 31.6554 12.0025C31.6619 11.9961 31.8809 12.0025 32.1387 12.0154ZM30.5406 14.8491C30.328 14.9522 29.9156 15.184 29.6192 15.3579C29.1939 15.6091 29.0972 15.6864 29.1681 15.7443C29.2132 15.7894 29.9478 16.2209 30.7984 16.7104C31.649 17.1999 32.9957 17.9727 33.7948 18.4364C34.5938 18.8937 35.3606 19.3316 35.5024 19.4024C35.6441 19.4797 35.773 19.5506 35.7924 19.5763C35.8117 19.5957 36.6365 20.0787 37.6288 20.6519C38.6212 21.2251 39.5104 21.6952 39.5104 21.6952L39.6071 21.7467L41.6047 22.9382L43.6538 24.0781L43.7183 24.1232L44.0727 24.3679L44.2499 24.4645L44.4271 24.5611V32.6759L41.7207 34.2392V30.1771V26.2356C41.7207 26.2356 40.7219 25.6431 39.852 25.1408C38.9821 24.6384 38.1444 24.1554 37.9833 24.0652C37.8222 23.9751 36.4045 23.1571 34.8258 22.2426C33.247 21.3281 31.9132 20.5681 31.8616 20.5488C31.8101 20.5295 31.7521 20.4973 31.7327 20.4715C31.7134 20.4522 30.5084 19.7502 29.0585 18.913C27.6022 18.0757 26.3715 17.3737 26.3199 17.348C26.2619 17.3287 25.102 17.9598 23.4202 18.9323C21.8801 19.8211 20.514 20.6068 20.3916 20.6776C20.2691 20.7485 19.3799 21.2573 18.4262 21.8111C17.4661 22.3585 16.609 22.8609 16.5059 22.9253L16.332 23.0477C16.332 38.279 16.3448 39.361 16.4286 39.6959C16.4866 39.9084 16.609 40.2433 16.7057 40.4365C16.8024 40.6297 17.0408 40.9517 17.2341 41.1514C17.4339 41.3575 17.8527 41.6666 18.2007 41.8727C18.5358 42.0659 18.8902 42.2591 18.9868 42.2978L19.1673 42.3686V24.5289C19.541 24.3293 19.6956 24.2391 19.7472 24.2069C19.7987 24.1747 20.9586 23.5049 22.3247 22.7192L25.4178 20.9417L26.1073 20.6003L26.5901 20.8352L27.0932 21.1156L27.9502 21.6115L28.7041 22.146C28.7041 22.146 27.9244 22.6999 26.7259 23.3954C25.6304 24.0266 24.3352 24.7801 23.839 25.0635C23.3429 25.3469 22.924 25.598 22.9047 25.6173C22.8853 25.6367 22.7049 25.7462 22.4987 25.8492C22.2925 25.9522 22.067 26.0939 21.9961 26.1583C21.8737 26.2678 21.8737 26.4546 21.8866 35.1361L21.9059 44.0044C23.504 44.9318 24.0066 45.1959 24.0452 45.2023C24.0903 45.2023 24.1354 45.2281 24.1419 45.2539C24.1548 45.2796 24.4641 45.4793 24.8378 45.6982C25.2116 45.9108 25.6433 46.1619 25.8044 46.2521C25.9655 46.3423 26.9063 46.8768 27.8987 47.45C28.891 48.0232 29.748 48.5127 29.7996 48.5513C29.8511 48.5835 30.1862 48.7767 30.5406 48.9828C30.895 49.1889 31.2108 49.3692 31.2494 49.3821C31.2817 49.395 31.3912 49.4594 31.4879 49.5238C31.591 49.5946 31.7134 49.6462 31.765 49.6462C31.8165 49.6462 32.7122 49.1567 33.7432 48.5642C34.7807 47.9652 36.2563 47.1215 37.0167 46.6836C37.7771 46.2457 38.415 45.8657 38.4343 45.8464C38.4537 45.8206 38.5117 45.7884 38.5632 45.7691C38.6148 45.7498 39.9486 44.9898 41.5274 44.0753C43.1061 43.1608 44.498 42.3622 44.6204 42.2913C44.7428 42.2205 45.0457 42.0466 45.297 41.8985C45.5483 41.7568 45.877 41.5507 46.0316 41.4412C46.1863 41.3317 46.4311 41.0805 46.5793 40.8873C46.7275 40.6941 46.9273 40.3141 47.024 40.0501C47.1915 39.5928 47.2044 39.5155 47.1851 38.6203L47.1657 37.6672C46.3151 38.1695 46.0638 38.3112 46.0509 38.3112C46.0445 38.3112 45.6965 38.5109 45.2777 38.7556C44.8653 39.0003 43.7827 39.625 42.8806 40.1467C41.9784 40.6684 41.1085 41.1707 40.9474 41.2609C40.7863 41.351 40.6446 41.4412 40.6252 41.467C40.6059 41.4863 40.535 41.5314 40.4641 41.5571C40.3933 41.5829 39.5813 42.0401 38.6599 42.5747C37.7384 43.1092 36.9394 43.5794 36.8878 43.6245C36.8363 43.6631 36.7332 43.7211 36.6623 43.7468C36.5914 43.7726 35.9986 44.1075 35.3413 44.4875C34.684 44.8739 33.6272 45.4793 32.9893 45.8464C32.2225 46.2843 31.7843 46.4968 31.7005 46.4775C31.6296 46.4582 30.0638 45.5694 28.2208 44.5068L24.87 42.5683V39.4061L26.5906 40.3657C26.5906 40.3657 28.8395 41.6473 29.6707 42.1239C30.502 42.6005 31.3203 43.0706 31.4879 43.1672L31.7972 43.3346C37.1649 40.2304 39.3042 38.9939 40.0131 38.5881C40.7219 38.176 41.6627 37.635 42.1073 37.3774C42.5519 37.1197 43.7505 36.4242 44.7815 35.8317C45.8125 35.2392 46.7727 34.6789 46.9209 34.5887L47.1979 34.4148V23.0155C46.9724 22.8738 45.5999 22.0816 44.0082 21.1671C42.4102 20.2526 41.0634 19.4733 41.0119 19.4411C40.9603 19.4089 40.7992 19.3123 40.6575 19.2286C40.5157 19.1448 39.7166 18.6876 38.8854 18.2045C38.0541 17.728 36.6429 16.9165 35.7601 16.4013C34.8709 15.886 34.0203 15.3966 33.8592 15.3064C33.6981 15.2162 33.4661 15.081 33.3437 15.0102C33.2213 14.9329 32.9571 14.8105 32.7637 14.7397C32.564 14.6624 32.2031 14.5915 31.926 14.5787C31.6619 14.5658 31.3268 14.5787 31.185 14.6044C31.0432 14.6366 30.7533 14.7461 30.5406 14.8491Z" fill="#A8AEBB"/>
</g>
</g>
<defs>
<filter id="filter0_i_120_7050" x="13.0087" y="12" width="36.7668" height="41.2569" filterUnits="userSpaceOnUse" color-interpolation-filters="sRGB">
<feFlood flood-opacity="0" result="BackgroundImageFix"/>
<feBlend mode="normal" in="SourceGraphic" in2="BackgroundImageFix" result="shape"/>
<feColorMatrix in="SourceAlpha" type="matrix" values="0 0 0 0 0 0 0 0 0 0 0 0 0 0 0 0 0 0 127 0" result="hardAlpha"/>
<feOffset dx="-0.810204" dy="0.648164"/>
<feGaussianBlur stdDeviation="0.866126"/>
<feComposite in2="hardAlpha" operator="arithmetic" k2="-1" k3="1"/>
<feColorMatrix type="matrix" values="0 0 0 0 1 0 0 0 0 1 0 0 0 0 1 0 0 0 1 0"/>
<feBlend mode="normal" in2="shape" result="effect1_innerShadow_120_7050"/>
</filter>
<clipPath id="clip0_120_7050">
<rect width="38.2828" height="42.7" fill="white" transform="translate(12 12)"/>
</clipPath>
</defs>
</svg>
